<?xml version="1.0" encoding="UTF-8" standalone="no"?>
<!-- Created with Inkscape (http://www.inkscape.org/) -->

<svg
   xmlns:dc="http://purl.org/dc/elements/1.1/"
   xmlns:cc="http://creativecommons.org/ns#"
   xmlns:rdf="http://www.w3.org/1999/02/22-rdf-syntax-ns#"
   xmlns:svg="http://www.w3.org/2000/svg"
   xmlns="http://www.w3.org/2000/svg"
   xmlns:sodipodi="http://sodipodi.sourceforge.net/DTD/sodipodi-0.dtd"
   xmlns:inkscape="http://www.inkscape.org/namespaces/inkscape"
   width="210mm"
   height="297mm"
   viewBox="0 0 744.09448819 1052.3622047"
   id="svg2"
   version="1.1"
   inkscape:version="0.91 r13725"
   sodipodi:docname="integrateur-illus.svg">
  <defs
     id="defs4" />
  <sodipodi:namedview
     id="base"
     pagecolor="#ffffff"
     bordercolor="#666666"
     borderopacity="1.0"
     inkscape:pageopacity="0.0"
     inkscape:pageshadow="2"
     inkscape:zoom="8"
     inkscape:cx="307.81668"
     inkscape:cy="395.88314"
     inkscape:document-units="px"
     inkscape:current-layer="layer1"
     showgrid="false"
     inkscape:window-width="1920"
     inkscape:window-height="1009"
     inkscape:window-x="0"
     inkscape:window-y="0"
     inkscape:window-maximized="1" />
  <metadata
     id="metadata7">
    <rdf:RDF>
      <cc:Work
         rdf:about="">
        <dc:format>image/svg+xml</dc:format>
        <dc:type
           rdf:resource="http://purl.org/dc/dcmitype/StillImage" />
        <dc:title />
      </cc:Work>
    </rdf:RDF>
  </metadata>
  <g
     inkscape:label="Calque 1"
     inkscape:groupmode="layer"
     id="layer1">
    <path
       style="fill:#723f65;fill-opacity:1;stroke:none"
       inkscape:transform-center-y="-5.3033009"
       d="m 128.95378,908.36058 0,22.0384 c 0,1.6778 -1.35073,3.02853 -3.02853,3.02853 l -84.205386,0 c -1.677806,0 -3.02853,-1.35073 -3.02853,-3.02853 l 0,-22.0384 z"
       id="rect4438"
       inkscape:connector-curvature="0"
       sodipodi:nodetypes="csssscc"
       inkscape:export-filename="/home/ubuntu/www/sgmap/guide_integrateur/img/textescaches.png"
       inkscape:export-xdpi="90"
       inkscape:export-ydpi="90" />
    <rect
       style="fill:#cccccc;fill-opacity:1;stroke:none;stroke-width:2;stroke-miterlimit:4;stroke-dasharray:none;stroke-opacity:1"
       id="rect4479"
       width="221.38121"
       height="100.61523"
       x="38.691334"
       y="812.74695"
       ry="2.5606403"
       inkscape:export-filename="/home/ubuntu/www/sgmap/guide_integrateur/img/textescaches.png"
       inkscape:export-xdpi="90"
       inkscape:export-ydpi="90" />
    <g
       id="g3342"
       transform="matrix(0.86821574,0,0,0.86821574,43.143998,121.19321)"
       style="stroke-width:2.30357492;stroke-miterlimit:4;stroke-dasharray:none;stroke:#1a1a1a"
       inkscape:export-filename="/home/ubuntu/www/sgmap/guide_integrateur/img/ordre-coherent.png"
       inkscape:export-xdpi="90"
       inkscape:export-ydpi="90">
      <rect
         y="285.34918"
         x="-8.0552959"
         height="163.61"
         width="163.61"
         id="rect3336"
         style="fill:#f2f2f2;fill-rule:evenodd;stroke:#1a1a1a;stroke-width:3.03243136;stroke-linecap:butt;stroke-linejoin:miter;stroke-miterlimit:4;stroke-dasharray:none;stroke-opacity:1"
         ry="6.4327579"
         inkscape:export-filename="/home/ubuntu/www/sgmap/guide_integrateur/img/ordre-coherent.png"
         inkscape:export-xdpi="90"
         inkscape:export-ydpi="90" />
      <path
         inkscape:connector-curvature="0"
         id="path3338"
         d="M -4.7373075,288.47168 152.00899,445.21798"
         style="fill:none;fill-rule:evenodd;stroke:#1a1a1a;stroke-width:3.03243136;stroke-linecap:butt;stroke-linejoin:miter;stroke-miterlimit:4;stroke-dasharray:none;stroke-opacity:1"
         inkscape:export-filename="/home/ubuntu/www/sgmap/guide_integrateur/img/ordre-coherent.png"
         inkscape:export-xdpi="90"
         inkscape:export-ydpi="90" />
      <path
         style="fill:none;fill-rule:evenodd;stroke:#1a1a1a;stroke-width:3.03243136;stroke-linecap:butt;stroke-linejoin:miter;stroke-miterlimit:4;stroke-dasharray:none;stroke-opacity:1"
         d="M 152.00899,288.47168 -4.7373102,445.21798"
         id="path3340"
         inkscape:connector-curvature="0"
         inkscape:export-filename="/home/ubuntu/www/sgmap/guide_integrateur/img/ordre-coherent.png"
         inkscape:export-xdpi="90"
         inkscape:export-ydpi="90" />
      <rect
         style="fill:#b63840;stroke:none;stroke-width:4.02884674;stroke-miterlimit:4;stroke-dasharray:none;fill-opacity:1"
         id="rect4319"
         width="88.375214"
         height="69.449066"
         x="-14.406987"
         y="556.20685"
         ry="12.340772"
         inkscape:export-filename="/home/ubuntu/www/sgmap/guide_integrateur/img/icone-lien.png"
         inkscape:export-xdpi="90"
         inkscape:export-ydpi="90" />
      <rect
         style="fill:#db352a;stroke:none;stroke-width:2.30357504;stroke-miterlimit:4;stroke-dasharray:none;fill-opacity:1"
         id="rect4321"
         width="25.339325"
         height="25.339325"
         x="-233.97871"
         y="375.21292"
         ry="4.9015317" />
      <rect
         ry="4.9015317"
         y="401.70404"
         x="-233.97871"
         height="25.339325"
         width="25.339325"
         id="rect4323"
         style="fill:#b63840;fill-opacity:1;stroke:none;stroke-width:2.30357504;stroke-miterlimit:4;stroke-dasharray:none" />
      <rect
         style="fill:#933c53;fill-opacity:1;stroke:none;stroke-width:2.30357504;stroke-miterlimit:4;stroke-dasharray:none"
         id="rect4325"
         width="25.339325"
         height="25.339325"
         x="-233.97871"
         y="431.07462"
         ry="4.9015317" />
      <rect
         ry="4.9015317"
         y="459.86929"
         x="-233.97871"
         height="25.339325"
         width="25.339325"
         id="rect4327"
         style="fill:#723f65;fill-opacity:1;stroke:none;stroke-width:2.30357504;stroke-miterlimit:4;stroke-dasharray:none" />
      <rect
         style="fill:#4b437b;fill-opacity:1;stroke:none;stroke-width:2.30357504;stroke-miterlimit:4;stroke-dasharray:none"
         id="rect4329"
         width="25.339325"
         height="25.339325"
         x="-233.97871"
         y="487.51221"
         ry="4.9015317" />
      <rect
         ry="4.9015317"
         y="516.88281"
         x="-233.97871"
         height="25.339325"
         width="25.339325"
         id="rect4331"
         style="fill:#28468e;fill-opacity:1;stroke:none;stroke-width:2.30357504;stroke-miterlimit:4;stroke-dasharray:none" />
      <path
         id="path4334"
         d="m 52.126939,586.09708 -3.529518,0 c -0.460206,-1.76865 -1.169905,-3.47162 -2.084069,-5.01671 l 2.503351,-2.50936 c 0.75911,-0.75888 0.75911,-1.9921 0,-2.75096 l -4.122132,-4.12356 c -0.758634,-0.75887 -1.989141,-0.75957 -2.747775,-7.1e-4 L 39.63154,574.199 c -1.544971,-0.91415 -3.247952,-1.62443 -5.016604,-2.08429 l 0,-3.52963 c 0,-1.0731 -0.846476,-1.94316 -1.919575,-1.94316 l -5.829469,0 c -1.073099,0 -1.919575,0.87006 -1.919575,1.94316 l 0,3.52963 c -1.768653,0.45986 -3.47162,1.16979 -5.016717,2.08406 l -2.50936,-2.50347 c -0.758872,-0.75909 -1.992095,-0.75909 -2.750955,0 l -4.123559,4.12214 c -0.7588594,0.75863 -0.759573,1.98915 -7.13e-4,2.74777 l 2.503226,2.51526 c -0.91439,1.54498 -1.62444,3.24795 -2.084294,5.0166 l -3.5296315,0 c -1.0730995,0 -1.9431608,0.84648 -1.9431608,1.91958 l 0,5.82946 c 0,1.07323 0.8700613,1.91958 1.9431608,1.91958 l 3.5296315,0 c 0.459854,1.76865 1.169792,3.47163 2.084068,5.01672 l -2.503701,2.50937 c -0.7588725,0.75862 -0.7588725,1.99208 0,2.7506 l 4.122132,4.12366 c 0.758859,0.75911 1.98914,0.75981 2.748012,8.3e-4 l 2.515256,-2.50311 c 1.544972,0.91415 3.247952,1.62421 5.016592,2.0844 l 0,3.52952 c 0,1.07322 0.846477,1.94316 1.919576,1.94316 l 5.829481,0 c 1.073211,0 1.919562,-0.87006 1.919562,-1.94316 l 0,-3.52952 c 1.768653,-0.46019 3.471633,-1.1699 5.01673,-2.08405 l 2.50936,2.50335 c 0.758634,0.75909 1.992082,0.75909 2.750604,0 l 4.123659,-4.12214 c 0.75911,-0.75863 0.759811,-1.98915 8.26e-4,-2.74778 l -2.503113,-2.51525 c 0.914164,-1.54497 1.624214,-3.24795 2.084419,-5.0166 l 3.529518,0 c 1.073212,0 1.943161,-0.84648 1.943161,-1.91958 l 0,-5.82946 c 0,-1.0731 -0.870062,-1.91958 -1.943161,-1.91958 z m -22.346313,14.5501 c -5.365958,0 -9.715776,-4.34994 -9.715776,-9.71579 0,-5.36597 4.349818,-9.71579 9.715776,-9.71579 5.365971,0 9.715789,4.34982 9.715789,9.71579 0,5.36597 -4.349818,9.71579 -9.715789,9.71579 z"
         inkscape:connector-curvature="0"
         style="fill:#ffffff;stroke:none;stroke-width:0.2169704"
         inkscape:export-filename="/home/ubuntu/www/sgmap/guide_integrateur/img/icone-lien.png"
         inkscape:export-xdpi="90"
         inkscape:export-ydpi="90" />
      <rect
         ry="12.340772"
         y="556.20685"
         x="106.53687"
         height="69.449066"
         width="88.375214"
         id="rect4343"
         style="fill:#b63840;fill-opacity:1;stroke:none;stroke-width:4.02884674;stroke-miterlimit:4;stroke-dasharray:none"
         inkscape:export-filename="/home/ubuntu/www/sgmap/guide_integrateur/img/icone-lien.png"
         inkscape:export-xdpi="90"
         inkscape:export-ydpi="90" />
      <g
         id="g4373"
         transform="matrix(1.2840495,0,0,1.2840495,-43.172837,-167.09756)"
         inkscape:export-filename="/home/ubuntu/www/sgmap/guide_integrateur/img/icone-lien.png"
         inkscape:export-xdpi="90"
         inkscape:export-ydpi="90">
        <path
           sodipodi:nodetypes="ccccsccsscssccsscssc"
           style="fill:#ffffff;stroke:none;stroke-width:2.65322876"
           inkscape:connector-curvature="0"
           d="m 166.82544,588.00431 -3.07923,-3.07711 -6.37084,-6.36658 -4.24721,-4.24297 c -0.57975,-0.54789 -1.11065,-1.1786 -2.12361,-1.1786 -1.01296,0 -1.54386,0.63071 -2.12361,1.1786 l -13.69728,13.68666 c -0.66255,0.69017 -1.16798,1.19348 -1.16798,2.12361 0,1.1956 0.9174,2.12361 2.12362,2.12361 l 2.12361,0 0,12.74164 c 0,1.168 0.95562,2.12362 2.12359,2.12362 l 6.37084,0 8.49444,0 6.37082,0 c 1.16797,0 2.12361,-0.95562 2.12361,-2.12362 l 0,-12.74164 2.12359,0 c 1.20622,0 2.12362,-0.92801 2.12362,-2.12361 0,-0.93013 -0.50541,-1.43344 -1.16798,-2.12361 z"
           id="path4348" />
        <rect
           ry="0.78872079"
           y="594.92633"
           x="147.30106"
           height="12.619536"
           width="7.4069958"
           id="rect4366"
           style="fill:#b63840;fill-opacity:1;stroke:none;stroke-width:2;stroke-miterlimit:4;stroke-dasharray:none;stroke-opacity:1" />
      </g>
      <g
         transform="matrix(1.2840495,0,0,1.2840495,225.9985,-167.09756)"
         id="g4393" />
    </g>
    <rect
       style="fill:#723f65;stroke:none;fill-opacity:1"
       id="rect3347"
       width="84.429108"
       height="19.996367"
       x="34.917393"
       y="519.61127"
       ry="2.8328073"
       inkscape:export-filename="/home/ubuntu/www/sgmap/guide_integrateur/img/ordre-coherent.png"
       inkscape:export-xdpi="90"
       inkscape:export-ydpi="90" />
    <path
       style="fill:none;fill-rule:evenodd;stroke:#ffffff;stroke-width:2.48843694px;stroke-linecap:butt;stroke-linejoin:miter;stroke-opacity:1"
       d="m 39.130987,532.20748 c 4.121985,-1.70436 9.181374,-5.9598 13.078358,-5.295 0.274905,3.28063 2.791698,7.96734 6.03704,4.00711 3.225795,-1.47039 8.73657,-6.4173 10.454738,-0.64557 2.956363,4.95473 7.472176,-0.13768 10.702271,-1.89301 4.325171,-3.92716 6.306607,6.89494 10.219849,0.71857 1.450965,-4.14601 7.869755,-6.12384 8.658241,-0.50577 1.122154,2.80262 4.450636,5.33678 5.723396,1.15831 3.67599,-2.54958 5.37231,3.95991 8.11341,5.53049 l 0.19253,0.19253 0.0316,0.0316"
       id="path3354"
       inkscape:connector-curvature="0"
       inkscape:export-filename="/home/ubuntu/www/sgmap/guide_integrateur/img/ordre-coherent.png"
       inkscape:export-xdpi="90"
       inkscape:export-ydpi="90" />
    <path
       style="fill:none;fill-rule:evenodd;stroke:#933c53;stroke-width:7.69380903px;stroke-linecap:butt;stroke-linejoin:miter;stroke-opacity:1"
       d="m 196.97146,408.3695 c 12.49637,-6.50278 24.872,-13.77664 38.29801,-18.00832 6.02376,5.71562 5.67438,28.31048 19.05766,14.33403 10.78902,-2.71489 27.73798,-20.53146 34.02244,-3.77946 5.84958,17.6017 21.68633,1.12055 31.59584,-3.10427 8.64292,-7.37521 15.5638,-2.51722 20.61121,6.16616 11.29797,4.20594 14.93697,-14.38209 25.10623,-17.54888 12.22712,-4.0423 13.00319,14.45272 21.29621,20.15761 6.4023,6.69871 15.64676,-19.35937 23.39168,-2.04269 4.4848,4.5433 8.25779,9.70858 12.9763,14.02652"
       id="path3377"
       inkscape:connector-curvature="0"
       inkscape:export-filename="/home/ubuntu/www/sgmap/guide_integrateur/img/ordre-coherent.png"
       inkscape:export-xdpi="90"
       inkscape:export-ydpi="90" />
    <g
       id="g3447"
       transform="matrix(3.8635019,0,0,3.8635019,-237.45893,-1027.7522)"
       inkscape:export-filename="/home/ubuntu/www/sgmap/guide_integrateur/img/ordre-coherent.png"
       inkscape:export-xdpi="90"
       inkscape:export-ydpi="90">
      <path
         style="fill:none;fill-rule:evenodd;stroke:#333333;stroke-width:0.64854354px;stroke-linecap:butt;stroke-linejoin:miter;stroke-opacity:1"
         d="m 113.49689,379.4197 c 1.34245,-0.60139 3.52158,-2.59854 3.87656,-0.0596 1.60076,-0.0843 3.47632,-2.45216 4.32553,0.0922 1.60699,-0.3299 3.06632,-2.0245 4.44007,-0.36194 0.96691,-1.57039 2.59652,-2.2219 3.16334,0.0184 0.78804,0.63218 1.80609,-1.47799 2.53385,0.35724 0.22213,0.29312 0.48037,0.55516 0.74097,0.81346"
         id="path3379"
         inkscape:connector-curvature="0" />
      <path
         style="fill:none;fill-rule:evenodd;stroke:#333333;stroke-width:0.64854354px;stroke-linecap:butt;stroke-linejoin:miter;stroke-opacity:1"
         d="m 151.24526,379.24113 c -1.34245,-0.60139 -3.52158,-2.59854 -3.87656,-0.0596 -1.60076,-0.0842 -3.47632,-2.45216 -4.32553,0.0922 -1.60699,-0.3299 -3.06632,-2.0245 -4.44007,-0.36194 -0.96691,-1.57039 -2.59652,-2.2219 -3.16334,0.0184 -0.78804,0.63218 -1.80609,-1.47799 -2.53385,0.35724 -0.22213,0.29312 -0.48037,0.55516 -0.74097,0.81346"
         id="path3381"
         inkscape:connector-curvature="0" />
      <path
         style="fill:none;fill-rule:evenodd;stroke:#333333;stroke-width:0.64854354px;stroke-linecap:butt;stroke-linejoin:miter;stroke-opacity:1"
         d="m 151.02884,379.24113 c 1.34245,-0.60139 3.52158,-2.59854 3.87656,-0.0596 1.60076,-0.0842 3.47632,-2.45216 4.32553,0.0922 1.64516,-0.59579 3.11256,-1.6929 4.43002,-0.3487 l 0.32758,-0.31112 0.28604,-0.33521"
         id="path3421"
         inkscape:connector-curvature="0" />
    </g>
    <path
       style="fill:none;fill-rule:evenodd;stroke:#333333;stroke-width:2.50564909px;stroke-linecap:butt;stroke-linejoin:miter;stroke-opacity:1"
       d="m 346.87739,476.59911 c -5.03766,-1.87513 -13.8959,-10.31851 -14.69465,-0.79167 -4.77798,3.17177 -13.33912,-10.42309 -16.08983,0.32259 -5.8858,2.64012 -12.42875,-9.574 -16.83971,-0.67139 -4.048,-2.23934 -9.80495,-10.95185 -12.55512,-1.65863 -1.85922,8.00776 -7.02688,-5.46805 -9.8224,2.16623 -1.32758,1.23663 -2.30451,2.80246 -3.71757,3.9548 m -72.1216,-2.63203 c 5.03773,-1.87499 13.89595,-10.31855 14.69422,-0.79159 4.77796,3.17179 13.33856,-10.4229 16.08908,0.32259 6.11971,2.36199 12.58391,-9.47182 17.09167,-0.51098 3.61731,-2.3628 8.83323,-11.0744 11.76971,-2.64389 2.03893,6.65734 4.74147,1.45923 8.02707,0.30201 1.93461,2.27211 3.93741,4.52303 6.04688,6.64336"
       id="path3435"
       inkscape:connector-curvature="0"
       inkscape:export-filename="/home/ubuntu/www/sgmap/guide_integrateur/img/ordre-coherent.png"
       inkscape:export-xdpi="90"
       inkscape:export-ydpi="90" />
    <g
       id="g3452"
       transform="matrix(-3.8635019,0,0,3.8635019,836.13898,-1007.9172)"
       inkscape:export-filename="/home/ubuntu/www/sgmap/guide_integrateur/img/ordre-coherent.png"
       inkscape:export-xdpi="90"
       inkscape:export-ydpi="90">
      <path
         style="fill:none;fill-rule:evenodd;stroke:#333333;stroke-width:0.64854354px;stroke-linecap:butt;stroke-linejoin:miter;stroke-opacity:1"
         d="m 113.49689,379.4197 c 1.34245,-0.60139 3.52158,-2.59854 3.87656,-0.0596 1.60076,-0.0843 3.47632,-2.45216 4.32553,0.0922 1.60699,-0.3299 3.06632,-2.0245 4.44007,-0.36194 0.96691,-1.57039 2.59652,-2.2219 3.16334,0.0184 0.78804,0.63218 1.80609,-1.47799 2.53385,0.35724 0.22213,0.29312 0.48037,0.55516 0.74097,0.81346"
         id="path3454"
         inkscape:connector-curvature="0" />
      <path
         style="fill:none;fill-rule:evenodd;stroke:#333333;stroke-width:0.64854354px;stroke-linecap:butt;stroke-linejoin:miter;stroke-opacity:1"
         d="m 151.24526,379.24113 c -1.34245,-0.60139 -3.52158,-2.59854 -3.87656,-0.0596 -1.60076,-0.0842 -3.47632,-2.45216 -4.32553,0.0922 -1.60699,-0.3299 -3.06632,-2.0245 -4.44007,-0.36194 -0.96691,-1.57039 -2.59652,-2.2219 -3.16334,0.0184 -0.78804,0.63218 -1.80609,-1.47799 -2.53385,0.35724 -0.22213,0.29312 -0.48037,0.55516 -0.74097,0.81346"
         id="path3456"
         inkscape:connector-curvature="0" />
      <path
         style="fill:none;fill-rule:evenodd;stroke:#333333;stroke-width:0.64854354px;stroke-linecap:butt;stroke-linejoin:miter;stroke-opacity:1"
         d="m 151.02884,379.24113 c 1.34245,-0.60139 3.52158,-2.59854 3.87656,-0.0596 1.60076,-0.0842 3.47632,-2.45216 4.32553,0.0922 1.64516,-0.59579 3.11256,-1.6929 4.43002,-0.3487 l 0.32758,-0.31112 0.28604,-0.33521"
         id="path3458"
         inkscape:connector-curvature="0" />
    </g>
    <rect
       ry="2.8328073"
       y="519.61127"
       x="121.79995"
       height="19.996393"
       width="59.911102"
       id="rect4260"
       style="fill:#28468e;stroke:none;fill-opacity:1"
       inkscape:export-filename="/home/ubuntu/www/sgmap/guide_integrateur/img/ordre-coherent.png"
       inkscape:export-xdpi="90"
       inkscape:export-ydpi="90" />
    <path
       style="fill:none;fill-rule:evenodd;stroke:#ffffff;stroke-width:2.48843694px;stroke-linecap:butt;stroke-linejoin:miter;stroke-opacity:1"
       d="m 126.01354,532.20748 c 4.12198,-1.70436 9.18136,-5.9598 13.07835,-5.295 0.2749,3.28063 2.7917,7.96734 6.03704,4.00711 3.2258,-1.47039 8.73657,-6.4173 10.45474,-0.64557 2.95636,4.95473 7.47217,-0.13768 10.70227,-1.89301 4.01983,-3.3189 4.45684,2.3656 7.56636,2.96208"
       id="path4262"
       inkscape:connector-curvature="0"
       inkscape:export-filename="/home/ubuntu/www/sgmap/guide_integrateur/img/ordre-coherent.png"
       inkscape:export-xdpi="90"
       inkscape:export-ydpi="90" />
    <path
       inkscape:export-ydpi="90"
       inkscape:export-xdpi="90"
       inkscape:export-filename="/home/ubuntu/www/sgmap/guide_integrateur/img/ordre-coherent.png"
       inkscape:connector-curvature="0"
       id="path4436"
       d="m 39.130987,532.20748 c 4.121985,-1.70436 9.181374,-5.9598 13.078358,-5.295 0.274905,3.28063 2.791698,7.96734 6.03704,4.00711 3.225795,-1.47039 8.73657,-6.4173 10.454738,-0.64557 2.956363,4.95473 7.472176,-0.13768 10.702271,-1.89301 4.325171,-3.92716 6.306607,6.89494 10.219849,0.71857 1.450965,-4.14601 7.869755,-6.12384 8.658241,-0.50577 1.122154,2.80262 4.450636,5.33678 5.723396,1.15831 3.67599,-2.54958 5.37231,3.95991 8.11341,5.53049 l 0.19253,0.19253 0.0316,0.0316"
       style="fill:none;fill-rule:evenodd;stroke:#ffffff;stroke-width:2.48843694px;stroke-linecap:butt;stroke-linejoin:miter;stroke-opacity:1" />
    <path
       style="fill:none;fill-rule:evenodd;stroke:#ffffff;stroke-width:2.66036677px;stroke-linecap:butt;stroke-linejoin:miter;stroke-opacity:1"
       d="m 72.403778,923.44908 c 3.160627,5.29706 7.988435,-0.14719 11.441699,-2.0238 4.62402,-4.1985 6.74235,7.37133 10.92595,0.76822 1.55122,-4.43247 8.413513,-6.54695 9.256463,-0.54071 1.19969,2.99626 4.75814,5.7055 6.11884,1.23832 3.92996,-2.72572 5.74349,4.23352 8.67397,5.91261 l 0.20583,0.20583 0.0338,0.0338"
       id="path4442"
       inkscape:connector-curvature="0"
       inkscape:export-filename="/home/ubuntu/www/sgmap/guide_integrateur/img/textescaches.png"
       inkscape:export-xdpi="90"
       inkscape:export-ydpi="90"
       sodipodi:nodetypes="cccccccc"
       inkscape:transform-center-x="-11.909498"
       inkscape:transform-center-y="-4.5468155" />
    <path
       style="fill:#ffffff;fill-opacity:1;stroke:none;stroke-width:2;stroke-miterlimit:4;stroke-dasharray:none;stroke-opacity:1"
       d="m 61.981803,917.08345 -8.03442,12.04118 -8.034405,-12.04118 z"
       id="rect4444"
       inkscape:connector-curvature="0"
       sodipodi:nodetypes="cccc"
       inkscape:transform-center-x="29.875165"
       inkscape:transform-center-y="-4.9378158"
       inkscape:export-filename="/home/ubuntu/www/sgmap/guide_integrateur/img/textescaches.png"
       inkscape:export-xdpi="90"
       inkscape:export-ydpi="90" />
    <path
       inkscape:export-ydpi="90"
       inkscape:export-xdpi="90"
       inkscape:export-filename="/home/ubuntu/www/sgmap/guide_integrateur/img/textescaches.png"
       inkscape:connector-curvature="0"
       id="path4459"
       d="m 49.850747,845.18616 c 9.585778,-4.98818 19.078937,-10.56785 29.377829,-13.81391 4.62073,4.38436 4.35273,21.71654 14.61884,10.99542 8.276104,-2.08255 21.277394,-15.74938 26.098114,-2.89917 4.48712,13.502 16.63525,0.85956 24.23669,-2.38124 6.62985,-5.65741 11.93876,-1.93092 15.81055,4.72997 8.6665,3.22631 11.45792,-11.03228 19.25861,-13.46148 9.37924,-3.10079 9.97455,11.08646 16.336,15.4626 4.91111,5.13848 12.0024,-14.85028 17.94341,-1.56692 3.44022,3.4851 6.33442,7.44731 9.95392,10.75953"
       style="fill:none;fill-rule:evenodd;stroke:#1a1a1a;stroke-width:5.9018054px;stroke-linecap:butt;stroke-linejoin:miter;stroke-opacity:1" />
    <g
       inkscape:export-ydpi="90"
       inkscape:export-xdpi="90"
       inkscape:export-filename="/home/ubuntu/www/sgmap/guide_integrateur/img/textescaches.png"
       transform="matrix(2.9636342,0,0,2.9636342,-283.39427,-256.4412)"
       id="g4461">
      <path
         inkscape:connector-curvature="0"
         id="path4463"
         d="m 113.49689,379.4197 c 1.34245,-0.60139 3.52158,-2.59854 3.87656,-0.0596 1.60076,-0.0843 3.47632,-2.45216 4.32553,0.0922 1.60699,-0.3299 3.06632,-2.0245 4.44007,-0.36194 0.96691,-1.57039 2.59652,-2.2219 3.16334,0.0184 0.78804,0.63218 1.80609,-1.47799 2.53385,0.35724 0.22213,0.29312 0.48037,0.55516 0.74097,0.81346"
         style="fill:none;fill-rule:evenodd;stroke:#333333;stroke-width:0.64854354px;stroke-linecap:butt;stroke-linejoin:miter;stroke-opacity:1" />
      <path
         inkscape:connector-curvature="0"
         id="path4465"
         d="m 151.24526,379.24113 c -1.34245,-0.60139 -3.52158,-2.59854 -3.87656,-0.0596 -1.60076,-0.0842 -3.47632,-2.45216 -4.32553,0.0922 -1.60699,-0.3299 -3.06632,-2.0245 -4.44007,-0.36194 -0.96691,-1.57039 -2.59652,-2.2219 -3.16334,0.0184 -0.78804,0.63218 -1.80609,-1.47799 -2.53385,0.35724 -0.22213,0.29312 -0.48037,0.55516 -0.74097,0.81346"
         style="fill:none;fill-rule:evenodd;stroke:#333333;stroke-width:0.64854354px;stroke-linecap:butt;stroke-linejoin:miter;stroke-opacity:1" />
      <path
         inkscape:connector-curvature="0"
         id="path4467"
         d="m 151.02884,379.24113 c 1.34245,-0.60139 3.52158,-2.59854 3.87656,-0.0596 1.60076,-0.0842 3.47632,-2.45216 4.32553,0.0922 1.64516,-0.59579 3.11256,-1.6929 4.43002,-0.3487 l 0.32758,-0.31112 0.28604,-0.33521"
         style="fill:none;fill-rule:evenodd;stroke:#333333;stroke-width:0.64854354px;stroke-linecap:butt;stroke-linejoin:miter;stroke-opacity:1" />
    </g>
    <path
       inkscape:export-ydpi="90"
       inkscape:export-xdpi="90"
       inkscape:export-filename="/home/ubuntu/www/sgmap/guide_integrateur/img/textescaches.png"
       inkscape:connector-curvature="0"
       id="path4469"
       d="m 164.84134,897.52407 c -3.86432,-1.43839 -10.65934,-7.91518 -11.27205,-0.60728 -3.66512,2.43302 -10.23224,-7.9954 -12.34227,0.24745 -4.5149,2.0252 -9.5339,-7.34407 -12.91748,-0.51501 -3.10516,-1.71776 -7.52123,-8.401 -9.63085,-1.27231 -1.42618,6.14263 -5.39021,-4.19446 -7.53461,1.66168 -1.01837,0.9486 -1.76776,2.14973 -2.8517,3.03367 m -55.323394,-2.01899 c 3.864367,-1.43828 10.659374,-7.91521 11.271715,-0.60722 3.665101,2.43304 10.231805,-7.99525 12.341695,0.24746 4.69433,1.81184 9.65292,-7.26569 13.11076,-0.39197 2.77478,-1.81247 6.77584,-8.495 9.02837,-2.02809 1.564034,5.10675 3.637114,1.11936 6.157444,0.23167 1.48401,1.7429 3.02033,3.46955 4.63847,5.09602"
       style="fill:none;fill-rule:evenodd;stroke:#333333;stroke-width:1.92204571px;stroke-linecap:butt;stroke-linejoin:miter;stroke-opacity:1" />
    <g
       inkscape:export-ydpi="90"
       inkscape:export-xdpi="90"
       inkscape:export-filename="/home/ubuntu/www/sgmap/guide_integrateur/img/textescaches.png"
       transform="matrix(-2.9636342,0,0,2.9636342,540.14654,-241.22607)"
       id="g4471">
      <path
         inkscape:connector-curvature="0"
         id="path4473"
         d="m 113.49689,379.4197 c 1.34245,-0.60139 3.52158,-2.59854 3.87656,-0.0596 1.60076,-0.0843 3.47632,-2.45216 4.32553,0.0922 1.60699,-0.3299 3.06632,-2.0245 4.44007,-0.36194 0.96691,-1.57039 2.59652,-2.2219 3.16334,0.0184 0.78804,0.63218 1.80609,-1.47799 2.53385,0.35724 0.22213,0.29312 0.48037,0.55516 0.74097,0.81346"
         style="fill:none;fill-rule:evenodd;stroke:#333333;stroke-width:0.64854354px;stroke-linecap:butt;stroke-linejoin:miter;stroke-opacity:1" />
      <path
         inkscape:connector-curvature="0"
         id="path4475"
         d="m 151.24526,379.24113 c -1.34245,-0.60139 -3.52158,-2.59854 -3.87656,-0.0596 -1.60076,-0.0842 -3.47632,-2.45216 -4.32553,0.0922 -1.60699,-0.3299 -3.06632,-2.0245 -4.44007,-0.36194 -0.96691,-1.57039 -2.59652,-2.2219 -3.16334,0.0184 -0.78804,0.63218 -1.80609,-1.47799 -2.53385,0.35724 -0.22213,0.29312 -0.48037,0.55516 -0.74097,0.81346"
         style="fill:none;fill-rule:evenodd;stroke:#333333;stroke-width:0.64854354px;stroke-linecap:butt;stroke-linejoin:miter;stroke-opacity:1" />
      <path
         inkscape:connector-curvature="0"
         id="path4477"
         d="m 151.02884,379.24113 c 1.34245,-0.60139 3.52158,-2.59854 3.87656,-0.0596 1.60076,-0.0842 3.47632,-2.45216 4.32553,0.0922 1.64516,-0.59579 3.11256,-1.6929 4.43002,-0.3487 l 0.32758,-0.31112 0.28604,-0.33521"
         style="fill:none;fill-rule:evenodd;stroke:#333333;stroke-width:0.64854354px;stroke-linecap:butt;stroke-linejoin:miter;stroke-opacity:1" />
    </g>
    <path
       sodipodi:nodetypes="csssscc"
       inkscape:connector-curvature="0"
       id="path4482"
       d="m 375.73405,974.99283 0,22.0384 c 0,1.6778 -1.35073,3.02857 -3.02853,3.02857 l -84.20539,0 c -1.67781,0 -3.02853,-1.35077 -3.02853,-3.02857 l 0,-22.0384 z"
       inkscape:transform-center-y="-5.3033009"
       style="fill:#723f65;fill-opacity:1;stroke:none"
       inkscape:export-filename="/home/ubuntu/www/sgmap/guide_integrateur/img/textescaches.png"
       inkscape:export-xdpi="90"
       inkscape:export-ydpi="90" />
    <rect
       ry="2.5606403"
       y="812.74695"
       x="285.47159"
       height="163.54774"
       width="221.3812"
       id="rect4484"
       style="fill:#cccccc;fill-opacity:1;stroke:none;stroke-width:2;stroke-miterlimit:4;stroke-dasharray:none;stroke-opacity:1"
       inkscape:export-filename="/home/ubuntu/www/sgmap/guide_integrateur/img/textescaches.png"
       inkscape:export-xdpi="90"
       inkscape:export-ydpi="90" />
    <path
       inkscape:transform-center-y="-4.5468155"
       inkscape:transform-center-x="11.909495"
       sodipodi:nodetypes="cccccccc"
       inkscape:export-ydpi="90"
       inkscape:export-xdpi="90"
       inkscape:export-filename="/home/ubuntu/www/sgmap/guide_integrateur/img/textescaches.png"
       inkscape:connector-curvature="0"
       id="path4486"
       d="m 365.63889,990.08133 c -3.16063,5.29706 -7.98844,-0.14719 -11.4417,-2.0238 -4.62402,-4.1985 -6.74235,7.37133 -10.92595,0.76822 -1.55122,-4.43247 -8.41352,-6.54695 -9.25647,-0.54071 -1.19969,2.99626 -4.75814,5.7055 -6.11884,1.23832 -3.92996,-2.72572 -5.74349,4.23352 -8.67397,5.91261 l -0.20583,0.20583 -0.0338,0.0338"
       style="fill:none;fill-rule:evenodd;stroke:#ffffff;stroke-width:2.66036677px;stroke-linecap:butt;stroke-linejoin:miter;stroke-opacity:1" />
    <path
       inkscape:transform-center-y="4.9378158"
       inkscape:transform-center-x="29.875165"
       sodipodi:nodetypes="cccc"
       inkscape:connector-curvature="0"
       id="path4488"
       d="m 308.76207,995.00688 -8.03442,-12.04118 -8.03441,12.04118 z"
       style="fill:#ffffff;fill-opacity:1;stroke:none;stroke-width:2;stroke-miterlimit:4;stroke-dasharray:none;stroke-opacity:1"
       inkscape:export-filename="/home/ubuntu/www/sgmap/guide_integrateur/img/textescaches.png"
       inkscape:export-xdpi="90"
       inkscape:export-ydpi="90" />
    <path
       style="fill:none;fill-rule:evenodd;stroke:#1a1a1a;stroke-width:5.9018054px;stroke-linecap:butt;stroke-linejoin:miter;stroke-opacity:1"
       d="m 296.63101,845.18616 c 9.58578,-4.98818 19.07894,-10.56785 29.37783,-13.81391 4.62073,4.38436 4.35273,21.71654 14.61884,10.99542 8.27611,-2.08255 21.2774,-15.74938 26.09812,-2.89917 4.48712,13.502 16.63525,0.85956 24.23669,-2.38124 6.62985,-5.65741 11.93876,-1.93092 15.81055,4.72997 8.6665,3.22631 11.45792,-11.03228 19.25861,-13.46148 9.37924,-3.10079 9.97455,11.08646 16.336,15.4626 4.91111,5.13848 12.0024,-14.85028 17.94341,-1.56692 3.44022,3.4851 6.33442,7.44731 9.95392,10.75953"
       id="path4490"
       inkscape:connector-curvature="0"
       inkscape:export-filename="/home/ubuntu/www/sgmap/guide_integrateur/img/textescaches.png"
       inkscape:export-xdpi="90"
       inkscape:export-ydpi="90" />
    <g
       id="g4492"
       transform="matrix(2.9636342,0,0,2.9636342,-36.614003,-256.4412)"
       inkscape:export-filename="/home/ubuntu/www/sgmap/guide_integrateur/img/textescaches.png"
       inkscape:export-xdpi="90"
       inkscape:export-ydpi="90">
      <path
         style="fill:none;fill-rule:evenodd;stroke:#333333;stroke-width:0.64854354px;stroke-linecap:butt;stroke-linejoin:miter;stroke-opacity:1"
         d="m 113.49689,379.4197 c 1.34245,-0.60139 3.52158,-2.59854 3.87656,-0.0596 1.60076,-0.0843 3.47632,-2.45216 4.32553,0.0922 1.60699,-0.3299 3.06632,-2.0245 4.44007,-0.36194 0.96691,-1.57039 2.59652,-2.2219 3.16334,0.0184 0.78804,0.63218 1.80609,-1.47799 2.53385,0.35724 0.22213,0.29312 0.48037,0.55516 0.74097,0.81346"
         id="path4494"
         inkscape:connector-curvature="0" />
      <path
         style="fill:none;fill-rule:evenodd;stroke:#333333;stroke-width:0.64854354px;stroke-linecap:butt;stroke-linejoin:miter;stroke-opacity:1"
         d="m 151.24526,379.24113 c -1.34245,-0.60139 -3.52158,-2.59854 -3.87656,-0.0596 -1.60076,-0.0842 -3.47632,-2.45216 -4.32553,0.0922 -1.60699,-0.3299 -3.06632,-2.0245 -4.44007,-0.36194 -0.96691,-1.57039 -2.59652,-2.2219 -3.16334,0.0184 -0.78804,0.63218 -1.80609,-1.47799 -2.53385,0.35724 -0.22213,0.29312 -0.48037,0.55516 -0.74097,0.81346"
         id="path4496"
         inkscape:connector-curvature="0" />
      <path
         style="fill:none;fill-rule:evenodd;stroke:#333333;stroke-width:0.64854354px;stroke-linecap:butt;stroke-linejoin:miter;stroke-opacity:1"
         d="m 151.02884,379.24113 c 1.34245,-0.60139 3.52158,-2.59854 3.87656,-0.0596 1.60076,-0.0842 3.47632,-2.45216 4.32553,0.0922 1.64516,-0.59579 3.11256,-1.6929 4.43002,-0.3487 l 0.32758,-0.31112 0.28604,-0.33521"
         id="path4498"
         inkscape:connector-curvature="0" />
    </g>
    <path
       style="fill:none;fill-rule:evenodd;stroke:#333333;stroke-width:1.92204571px;stroke-linecap:butt;stroke-linejoin:miter;stroke-opacity:1"
       d="m 411.62161,897.52407 c -3.86432,-1.43839 -10.65934,-7.91518 -11.27205,-0.60728 -3.66512,2.43302 -10.23224,-7.9954 -12.34227,0.24745 -4.5149,2.0252 -9.5339,-7.34407 -12.91748,-0.51501 -3.10516,-1.71776 -7.52123,-8.401 -9.63085,-1.27231 -1.42618,6.14263 -5.39021,-4.19446 -7.53461,1.66168 -1.01837,0.9486 -1.76776,2.14973 -2.8517,3.03367 m -55.3234,-2.01899 c 3.86437,-1.43828 10.65938,-7.91521 11.27172,-0.60722 3.6651,2.43304 10.2318,-7.99525 12.34169,0.24746 4.69433,1.81184 9.65292,-7.26569 13.11076,-0.39197 2.77478,-1.81247 6.77584,-8.495 9.02837,-2.02809 1.56404,5.10675 3.63712,1.11936 6.15745,0.23167 1.48401,1.7429 3.02033,3.46955 4.63847,5.09602"
       id="path4500"
       inkscape:connector-curvature="0"
       inkscape:export-filename="/home/ubuntu/www/sgmap/guide_integrateur/img/textescaches.png"
       inkscape:export-xdpi="90"
       inkscape:export-ydpi="90" />
    <g
       id="g4502"
       transform="matrix(-2.9636342,0,0,2.9636342,786.92681,-241.22607)"
       inkscape:export-filename="/home/ubuntu/www/sgmap/guide_integrateur/img/textescaches.png"
       inkscape:export-xdpi="90"
       inkscape:export-ydpi="90">
      <path
         style="fill:none;fill-rule:evenodd;stroke:#333333;stroke-width:0.64854354px;stroke-linecap:butt;stroke-linejoin:miter;stroke-opacity:1"
         d="m 113.49689,379.4197 c 1.34245,-0.60139 3.52158,-2.59854 3.87656,-0.0596 1.60076,-0.0843 3.47632,-2.45216 4.32553,0.0922 1.60699,-0.3299 3.06632,-2.0245 4.44007,-0.36194 0.96691,-1.57039 2.59652,-2.2219 3.16334,0.0184 0.78804,0.63218 1.80609,-1.47799 2.53385,0.35724 0.22213,0.29312 0.48037,0.55516 0.74097,0.81346"
         id="path4504"
         inkscape:connector-curvature="0" />
      <path
         style="fill:none;fill-rule:evenodd;stroke:#333333;stroke-width:0.64854354px;stroke-linecap:butt;stroke-linejoin:miter;stroke-opacity:1"
         d="m 151.24526,379.24113 c -1.34245,-0.60139 -3.52158,-2.59854 -3.87656,-0.0596 -1.60076,-0.0842 -3.47632,-2.45216 -4.32553,0.0922 -1.60699,-0.3299 -3.06632,-2.0245 -4.44007,-0.36194 -0.96691,-1.57039 -2.59652,-2.2219 -3.16334,0.0184 -0.78804,0.63218 -1.80609,-1.47799 -2.53385,0.35724 -0.22213,0.29312 -0.48037,0.55516 -0.74097,0.81346"
         id="path4506"
         inkscape:connector-curvature="0" />
      <path
         style="fill:none;fill-rule:evenodd;stroke:#333333;stroke-width:0.64854354px;stroke-linecap:butt;stroke-linejoin:miter;stroke-opacity:1"
         d="m 151.02884,379.24113 c 1.34245,-0.60139 3.52158,-2.59854 3.87656,-0.0596 1.60076,-0.0842 3.47632,-2.45216 4.32553,0.0922 1.64516,-0.59579 3.11256,-1.6929 4.43002,-0.3487 l 0.32758,-0.31112 0.28604,-0.33521"
         id="path4508"
         inkscape:connector-curvature="0" />
    </g>
    <g
       inkscape:export-ydpi="90"
       inkscape:export-xdpi="90"
       inkscape:export-filename="/home/ubuntu/www/sgmap/guide_integrateur/img/textescaches.png"
       transform="matrix(2.9636342,0,0,2.9636342,-36.614003,-209.4186)"
       id="g4510">
      <path
         inkscape:connector-curvature="0"
         id="path4512"
         d="m 113.49689,379.4197 c 1.34245,-0.60139 3.52158,-2.59854 3.87656,-0.0596 1.60076,-0.0843 3.47632,-2.45216 4.32553,0.0922 1.60699,-0.3299 3.06632,-2.0245 4.44007,-0.36194 0.96691,-1.57039 2.59652,-2.2219 3.16334,0.0184 0.78804,0.63218 1.80609,-1.47799 2.53385,0.35724 0.22213,0.29312 0.48037,0.55516 0.74097,0.81346"
         style="fill:none;fill-rule:evenodd;stroke:#333333;stroke-width:0.64854354px;stroke-linecap:butt;stroke-linejoin:miter;stroke-opacity:1" />
      <path
         inkscape:connector-curvature="0"
         id="path4514"
         d="m 151.24526,379.24113 c -1.34245,-0.60139 -3.52158,-2.59854 -3.87656,-0.0596 -1.60076,-0.0842 -3.47632,-2.45216 -4.32553,0.0922 -1.60699,-0.3299 -3.06632,-2.0245 -4.44007,-0.36194 -0.96691,-1.57039 -2.59652,-2.2219 -3.16334,0.0184 -0.78804,0.63218 -1.80609,-1.47799 -2.53385,0.35724 -0.22213,0.29312 -0.48037,0.55516 -0.74097,0.81346"
         style="fill:none;fill-rule:evenodd;stroke:#333333;stroke-width:0.64854354px;stroke-linecap:butt;stroke-linejoin:miter;stroke-opacity:1" />
      <path
         inkscape:connector-curvature="0"
         id="path4516"
         d="m 151.02884,379.24113 c 1.34245,-0.60139 3.52158,-2.59854 3.87656,-0.0596 1.60076,-0.0842 3.47632,-2.45216 4.32553,0.0922 1.64516,-0.59579 3.11256,-1.6929 4.43002,-0.3487 l 0.32758,-0.31112 0.28604,-0.33521"
         style="fill:none;fill-rule:evenodd;stroke:#333333;stroke-width:0.64854354px;stroke-linecap:butt;stroke-linejoin:miter;stroke-opacity:1" />
    </g>
    <path
       inkscape:export-ydpi="90"
       inkscape:export-xdpi="90"
       inkscape:export-filename="/home/ubuntu/www/sgmap/guide_integrateur/img/textescaches.png"
       inkscape:connector-curvature="0"
       id="path4518"
       d="m 411.62161,944.54665 c -3.86432,-1.43839 -10.65934,-7.91518 -11.27205,-0.60728 -3.66512,2.43302 -10.23224,-7.9954 -12.34227,0.24745 -4.5149,2.0252 -9.5339,-7.34407 -12.91748,-0.51501 -3.10516,-1.71776 -7.52123,-8.401 -9.63085,-1.27231 -1.42618,6.14263 -5.39021,-4.19446 -7.53461,1.66168 -1.01837,0.9486 -1.76776,2.14973 -2.8517,3.03367 m -55.3234,-2.01899 c 3.86437,-1.43828 10.65938,-7.91521 11.27172,-0.60722 3.6651,2.43304 10.2318,-7.99525 12.34169,0.24746 4.69433,1.81184 9.65292,-7.26569 13.11076,-0.39197 2.77478,-1.81247 6.77584,-8.495 9.02837,-2.02809 1.56404,5.10675 3.63712,1.11936 6.15745,0.23167 1.48401,1.7429 3.02033,3.46955 4.63847,5.09602"
       style="fill:none;fill-rule:evenodd;stroke:#333333;stroke-width:1.92204571px;stroke-linecap:butt;stroke-linejoin:miter;stroke-opacity:1" />
    <g
       inkscape:export-ydpi="90"
       inkscape:export-xdpi="90"
       inkscape:export-filename="/home/ubuntu/www/sgmap/guide_integrateur/img/textescaches.png"
       transform="matrix(-2.9636342,0,0,2.9636342,786.92681,-194.2035)"
       id="g4520">
      <path
         inkscape:connector-curvature="0"
         id="path4522"
         d="m 113.49689,379.4197 c 1.34245,-0.60139 3.52158,-2.59854 3.87656,-0.0596 1.60076,-0.0843 3.47632,-2.45216 4.32553,0.0922 1.60699,-0.3299 3.06632,-2.0245 4.44007,-0.36194 0.96691,-1.57039 2.59652,-2.2219 3.16334,0.0184 0.78804,0.63218 1.80609,-1.47799 2.53385,0.35724 0.22213,0.29312 0.48037,0.55516 0.74097,0.81346"
         style="fill:none;fill-rule:evenodd;stroke:#333333;stroke-width:0.64854354px;stroke-linecap:butt;stroke-linejoin:miter;stroke-opacity:1" />
      <path
         inkscape:connector-curvature="0"
         id="path4524"
         d="m 151.24526,379.24113 c -1.34245,-0.60139 -3.52158,-2.59854 -3.87656,-0.0596 -1.60076,-0.0842 -3.47632,-2.45216 -4.32553,0.0922 -1.60699,-0.3299 -3.06632,-2.0245 -4.44007,-0.36194 -0.96691,-1.57039 -2.59652,-2.2219 -3.16334,0.0184 -0.78804,0.63218 -1.80609,-1.47799 -2.53385,0.35724 -0.22213,0.29312 -0.48037,0.55516 -0.74097,0.81346"
         style="fill:none;fill-rule:evenodd;stroke:#333333;stroke-width:0.64854354px;stroke-linecap:butt;stroke-linejoin:miter;stroke-opacity:1" />
      <path
         inkscape:connector-curvature="0"
         id="path4526"
         d="m 151.02884,379.24113 c 1.34245,-0.60139 3.52158,-2.59854 3.87656,-0.0596 1.60076,-0.0842 3.47632,-2.45216 4.32553,0.0922 1.64516,-0.59579 3.11256,-1.6929 4.43002,-0.3487 l 0.32758,-0.31112 0.28604,-0.33521"
         style="fill:none;fill-rule:evenodd;stroke:#333333;stroke-width:0.64854354px;stroke-linecap:butt;stroke-linejoin:miter;stroke-opacity:1" />
    </g>
    <path
       style="fill:none;fill-rule:evenodd;stroke:#333333;stroke-width:1.92204571px;stroke-linecap:butt;stroke-linejoin:miter;stroke-opacity:1"
       d="m 411.62161,959.39589 c -3.86432,-1.43839 -10.65934,-7.91518 -11.27205,-0.60728 -3.66512,2.43302 -10.23224,-7.9954 -12.34227,0.24745 -4.5149,2.0252 -9.5339,-7.34407 -12.91748,-0.51501 -3.10516,-1.71776 -7.52123,-8.401 -9.63085,-1.27231 -1.42618,6.14263 -5.39021,-4.19446 -7.53461,1.66168 -1.01837,0.9486 -1.76776,2.14973 -2.8517,3.03367 m -55.3234,-2.01899 c 3.86437,-1.43828 10.65938,-7.91521 11.27172,-0.60722 3.6651,2.43304 10.2318,-7.99525 12.34169,0.24746 4.69433,1.81184 9.65292,-7.26569 13.11076,-0.39197 2.77478,-1.81247 6.77584,-8.495 9.02837,-2.02809 1.56404,5.10675 3.63712,1.11936 6.15745,0.23167 1.48401,1.7429 3.02033,3.46955 4.63847,5.09602"
       id="path4528"
       inkscape:connector-curvature="0"
       inkscape:export-filename="/home/ubuntu/www/sgmap/guide_integrateur/img/textescaches.png"
       inkscape:export-xdpi="90"
       inkscape:export-ydpi="90" />
    <path
       style="fill:#00ffff;fill-opacity:1;stroke:none;stroke-width:2;stroke-miterlimit:4;stroke-dasharray:none;stroke-opacity:1"
       d="m 305.19238,628.56354 0,12.51312 -11.69927,-6.25656 z"
       id="rect3403"
       inkscape:connector-curvature="0"
       sodipodi:nodetypes="cccc"
       inkscape:export-filename="/home/ubuntu/www/sgmap/guide_integrateur/demo/img/prev.png"
       inkscape:export-xdpi="90"
       inkscape:export-ydpi="90" />
    <path
       inkscape:export-ydpi="90"
       inkscape:export-xdpi="90"
       inkscape:export-filename="/home/ubuntu/www/sgmap/guide_integrateur/demo/img/next.png"
       sodipodi:nodetypes="cccc"
       inkscape:connector-curvature="0"
       id="path3406"
       d="m 321.66884,628.56354 0,12.51312 11.69927,-6.25656 z"
       style="fill:#00ffff;fill-opacity:1;stroke:none;stroke-width:2;stroke-miterlimit:4;stroke-dasharray:none;stroke-opacity:1" />
    <circle
       style="fill:none;fill-opacity:1;stroke:#b63840;stroke-width:5.96899223;stroke-miterlimit:4;stroke-dasharray:none;stroke-opacity:1"
       id="path3405"
       cx="306.09048"
       cy="667.61218"
       r="10.765504"
       inkscape:export-filename="/home/ubuntu/www/sgmap/guide_integrateur/demo/img/wrong.png"
       inkscape:export-xdpi="90"
       inkscape:export-ydpi="90" />
    <path
       style="fill:none;fill-rule:evenodd;stroke:#b63840;stroke-width:5.96899223;stroke-linecap:butt;stroke-linejoin:miter;stroke-miterlimit:4;stroke-dasharray:none;stroke-opacity:1"
       d="m 299.69513,675.81956 12.36434,-16.94767"
       id="path3407"
       inkscape:connector-curvature="0"
       inkscape:export-filename="/home/ubuntu/www/sgmap/guide_integrateur/demo/img/wrong.png"
       inkscape:export-xdpi="90"
       inkscape:export-ydpi="90" />
    <path
       style="fill:none;fill-rule:evenodd;stroke:#16843a;stroke-width:5.96899223;stroke-linecap:round;stroke-linejoin:round;stroke-miterlimit:4;stroke-dasharray:none;stroke-opacity:1"
       d="m 328.90055,667.29243 7.03489,10.65891 14.7093,-20.99806"
       id="path4209"
       inkscape:connector-curvature="0"
       sodipodi:nodetypes="ccc"
       inkscape:export-filename="/home/ubuntu/www/sgmap/guide_integrateur/demo/img/right.png"
       inkscape:export-xdpi="90"
       inkscape:export-ydpi="90" />
  </g>
</svg>
