<?xml version="1.0" encoding="UTF-8" standalone="no"?>
<svg
   xmlns:dc="http://purl.org/dc/elements/1.1/"
   xmlns:cc="http://creativecommons.org/ns#"
   xmlns:rdf="http://www.w3.org/1999/02/22-rdf-syntax-ns#"
   xmlns:svg="http://www.w3.org/2000/svg"
   xmlns="http://www.w3.org/2000/svg"
   xmlns:sodipodi="http://sodipodi.sourceforge.net/DTD/sodipodi-0.dtd"
   xmlns:inkscape="http://www.inkscape.org/namespaces/inkscape"
   width="19.999996"
   height="18.5504"
   viewBox="0 0 19.999996 18.5504"
   id="svg2"
   version="1.1"
   inkscape:version="0.91 r13725"
   sodipodi:docname="exclamation-triangle.svg">
  <metadata
     id="metadata10">
    <rdf:RDF>
      <cc:Work
         rdf:about="">
        <dc:format>image/svg+xml</dc:format>
        <dc:type
           rdf:resource="http://purl.org/dc/dcmitype/StillImage" />
        <dc:title></dc:title>
      </cc:Work>
    </rdf:RDF>
  </metadata>
  <defs
     id="defs8" />
  <sodipodi:namedview
     pagecolor="#ffffff"
     bordercolor="#666666"
     borderopacity="1"
     objecttolerance="10"
     gridtolerance="10"
     guidetolerance="10"
     inkscape:pageopacity="0"
     inkscape:pageshadow="2"
     inkscape:window-width="1891"
     inkscape:window-height="865"
     id="namedview6"
     showgrid="false"
     fit-margin-top="0"
     fit-margin-left="0"
     fit-margin-right="0"
     fit-margin-bottom="0"
     inkscape:zoom="0.13169643"
     inkscape:cx="50.369821"
     inkscape:cy="768"
     inkscape:window-x="0"
     inkscape:window-y="0"
     inkscape:window-maximized="0"
     inkscape:current-layer="svg2" />
  <path
     d="m 11.426957,15.3286 0,-2.1181 q 0,-0.1561 -0.105907,-0.262 -0.105907,-0.1059 -0.250832,-0.1059 l -2.1404355,0 q -0.1449253,0 -0.2508323,0.1059 -0.1059069,0.1059 -0.1059069,0.262 l 0,2.1181 q 0,0.1561 0.1059069,0.262 0.105907,0.1059 0.2508323,0.1059 l 2.1404355,0 q 0.144925,0 0.250832,-0.1059 0.105907,-0.1059 0.105907,-0.262 z m -0.0223,-4.1694 0.200665,-5.117 q 0,-0.1337 -0.111481,-0.2118 -0.144925,-0.1226 -0.267554,-0.1226 l -2.4525819,0 q -0.1226291,0 -0.2675544,0.1226 -0.111481,0.078 -0.111481,0.2341 l 0.1895177,5.0947 q 0,0.1115 0.111481,0.184 0.111481,0.072 0.2675544,0.072 l 2.0623982,0 q 0.156074,0 0.261981,-0.072 0.105907,-0.072 0.117055,-0.184 z M 11.248583,0.7469 19.810324,16.4434 q 0.390183,0.7023 -0.0223,1.4047 -0.189517,0.3233 -0.518386,0.5128 -0.328862,0.1895 -0.707898,0.1895 l -17.1234804,0 q -0.3790353,0 -0.70790427,-0.1895 Q 0.40148639,18.1714 0.2119687,17.8481 -0.20051093,17.1457 0.1896725,16.4434 L 8.7514129,0.7469 Q 8.9409306,0.4013 9.2753735,0.2006 9.6098165,0 10,0 q 0.390183,0 0.724626,0.2006 0.334444,0.2007 0.523961,0.5463 z"
     id="path4"
     inkscape:connector-curvature="0"
     style="fill:#800000" />
</svg>
