<?xml version="1.0" encoding="UTF-8" standalone="no"?>
<svg
   xmlns:dc="http://purl.org/dc/elements/1.1/"
   xmlns:cc="http://creativecommons.org/ns#"
   xmlns:rdf="http://www.w3.org/1999/02/22-rdf-syntax-ns#"
   xmlns:svg="http://www.w3.org/2000/svg"
   xmlns="http://www.w3.org/2000/svg"
   xmlns:sodipodi="http://sodipodi.sourceforge.net/DTD/sodipodi-0.dtd"
   xmlns:inkscape="http://www.inkscape.org/namespaces/inkscape"
   width="20"
   height="30"
   viewBox="0 0 20 30"
   id="svg2"
   version="1.1"
   inkscape:version="0.91 r13725"
   sodipodi:docname="lightbulb-o.svg">
  <metadata
     id="metadata10">
    <rdf:RDF>
      <cc:Work
         rdf:about="">
        <dc:format>image/svg+xml</dc:format>
        <dc:type
           rdf:resource="http://purl.org/dc/dcmitype/StillImage" />
        <dc:title></dc:title>
      </cc:Work>
    </rdf:RDF>
  </metadata>
  <defs
     id="defs8" />
  <sodipodi:namedview
     pagecolor="#ffffff"
     bordercolor="#666666"
     borderopacity="1"
     objecttolerance="10"
     gridtolerance="10"
     guidetolerance="10"
     inkscape:pageopacity="0"
     inkscape:pageshadow="2"
     inkscape:window-width="1270"
     inkscape:window-height="804"
     id="namedview6"
     showgrid="false"
     fit-margin-top="0"
     fit-margin-left="0"
     fit-margin-right="0"
     fit-margin-bottom="0"
     inkscape:zoom="0.13169643"
     inkscape:cx="512"
     inkscape:cy="768"
     inkscape:window-x="635"
     inkscape:window-y="41"
     inkscape:window-maximized="0"
     inkscape:current-layer="svg2" />
  <path
     d="m 14.375,8.75 q 0,0.2539 -0.18555,0.4395 Q 14.00391,9.375 13.75,9.375 13.49609,9.375 13.31055,9.1895 13.125,9.0039 13.125,8.75 13.125,7.8516 12.07031,7.3633 11.01562,6.875 10,6.875 9.74609,6.875 9.56055,6.6895 9.375,6.5039 9.375,6.25 9.375,5.9961 9.56055,5.8105 9.74609,5.625 10,5.625 q 0.97656,0 1.94336,0.3125 0.9668,0.3125 1.69922,1.0547 Q 14.375,7.7344 14.375,8.75 Z m 3.125,0 Q 17.5,7.3438 16.82617,6.1328 16.15234,4.9219 15.06836,4.1504 13.98437,3.3789 12.66602,2.9395 11.34766,2.5 10,2.5 8.65234,2.5 7.33398,2.9395 6.01562,3.3789 4.93164,4.1504 3.84766,4.9219 3.17383,6.1328 2.5,7.3438 2.5,8.75 q 0,1.9727 1.32812,3.5156 0.19532,0.2149 0.59571,0.6446 0.40039,0.4296 0.5957,0.6445 2.5,2.9883 2.75391,5.8203 l 4.45312,0 q 0.25391,-2.832 2.75391,-5.8203 0.19531,-0.2149 0.5957,-0.6445 0.40039,-0.4297 0.5957,-0.6446 Q 17.5,10.7227 17.5,8.75 Z m 2.5,0 q 0,3.0273 -2.01172,5.2344 -0.87891,0.957 -1.45508,1.6992 -0.57617,0.7422 -1.16211,1.8652 -0.58593,1.1231 -0.66406,2.0996 0.91797,0.5469 0.91797,1.6016 0,0.7227 -0.48828,1.25 0.48828,0.5273 0.48828,1.25 0,1.0156 -0.87891,1.582 Q 15,25.7813 15,26.25 q 0,0.8984 -0.61523,1.3867 -0.61524,0.4883 -1.51368,0.4883 -0.39062,0.8594 -1.17187,1.3672 Q 10.91797,30 10,30 9.08203,30 8.30078,29.4922 7.51953,28.9844 7.12891,28.125 6.23047,28.125 5.61523,27.6367 5,27.1484 5,26.25 5,25.7813 5.25391,25.332 4.375,24.7656 4.375,23.75 4.375,23.0273 4.86328,22.5 4.375,21.9727 4.375,21.25 4.375,20.1953 5.29297,19.6484 5.21487,18.6719 4.62891,17.5488 4.04297,16.4258 3.4668,15.6836 2.89062,14.9414 2.01172,13.9844 0,11.7773 0,8.75 0,6.8164 0.86914,5.1465 1.73828,3.4766 3.1543,2.373 4.57031,1.2695 6.35742,0.6348 8.14453,0 10,0 11.85547,0 13.64258,0.6348 15.42969,1.2695 16.8457,2.373 18.26172,3.4766 19.13086,5.1465 20,6.8164 20,8.75 Z"
     id="path4"
     style="fill:#800000"
     inkscape:connector-curvature="0" />
</svg>
